<svg width="169" height="43" viewBox="0 0 169 43" fill="none" xmlns="http://www.w3.org/2000/svg">
    <rect width="42.5117" height="42.5117" fill="#F17A36"/>
    <path d="M34.0994 24.25L30.3573 20.5078C30.3064 20.457 30.2513 20.4146 30.1962 20.3765C30.1708 20.3595 30.1454 20.3468 30.1157 20.3341C30.0818 20.3171 30.0479 20.2959 30.014 20.279C29.9801 20.2663 29.9419 20.2578 29.908 20.2451C29.8784 20.2366 29.8487 20.2239 29.8148 20.2197C29.6792 20.1942 29.5351 20.1942 29.3995 20.2197C29.3698 20.2239 29.3401 20.2366 29.3062 20.2451C29.2723 20.2536 29.2342 20.262 29.2003 20.279C29.1621 20.2959 29.1325 20.3129 29.0986 20.3341C29.0731 20.3468 29.0435 20.3595 29.018 20.3765C28.9587 20.4146 28.9036 20.4612 28.857 20.5078L25.1148 24.25C24.6995 24.6653 24.6995 25.335 25.1148 25.7503C25.5301 26.1656 26.1997 26.1656 26.6151 25.7503L28.5476 23.8177V28.1532C28.5476 29.8697 27.1491 31.2682 25.4327 31.2682C23.712 31.2682 22.3177 29.8697 22.3177 28.1532V21.258V14.3627C22.3177 11.4766 19.9698 9.12872 17.0837 9.12872C14.1976 9.12872 11.8498 11.4766 11.8498 14.3627V18.6982L9.91723 16.7657C9.5019 16.3503 8.83229 16.3503 8.41696 16.7657C8.00164 17.181 8.00164 17.8506 8.41696 18.2659L12.1591 22.0081C12.21 22.059 12.2651 22.1013 12.3202 22.1395C12.3456 22.1564 12.371 22.1691 12.4007 22.1819C12.4346 22.1988 12.4685 22.22 12.5024 22.237C12.5363 22.2497 12.5745 22.2581 12.6084 22.2709C12.638 22.2793 12.6677 22.2921 12.7016 22.2963C12.7694 22.309 12.8415 22.3175 12.9093 22.3175C12.9771 22.3175 13.0491 22.309 13.1169 22.2963C13.1508 22.2921 13.1763 22.2793 13.2102 22.2709C13.2441 22.2624 13.2822 22.2539 13.3161 22.237C13.3543 22.22 13.3839 22.2031 13.4178 22.1819C13.4433 22.1691 13.4729 22.1564 13.4984 22.1395C13.5577 22.1013 13.6128 22.0547 13.6594 22.0081L17.4016 18.2659C17.8169 17.8506 17.8169 17.181 17.4016 16.7657C16.9863 16.3503 16.3167 16.3503 15.9013 16.7657L13.9688 18.6982V14.3627C13.9688 12.6463 15.3673 11.2477 17.0837 11.2477C18.8001 11.2477 20.1987 12.6463 20.1987 14.3627V21.258V28.1532C20.1987 31.0393 22.5466 33.3872 25.4327 33.3872C28.3188 33.3872 30.6666 31.0393 30.6666 28.1532V23.8135L32.5992 25.746C32.8068 25.9537 33.0781 26.0554 33.3493 26.0554C33.6205 26.0554 33.8918 25.9537 34.0994 25.746C34.5148 25.335 34.5148 24.6653 34.0994 24.25Z"
          fill="#1C1B21"/>
    <path d="M55.624 29.217C54.8187 28.8356 54.2169 28.399 53.827 27.9032C53.4371 27.4116 53.2422 27.0047 53.2422 26.6826C53.2422 26.5131 53.3015 26.3817 53.4202 26.2885C53.5389 26.1953 53.666 26.1487 53.8016 26.1487H54.8696C54.9713 26.1487 55.0518 26.1656 55.1112 26.1995C55.1705 26.2334 55.251 26.3097 55.3527 26.4284C55.7426 26.903 56.1791 27.276 56.6665 27.5472C57.1497 27.8184 57.7981 27.9541 58.616 27.9541C59.5314 27.9541 60.2688 27.7845 60.8198 27.4455C61.3707 27.1064 61.6462 26.6148 61.6462 25.9664C61.6462 25.5426 61.5275 25.2036 61.2902 24.9493C61.0529 24.695 60.6587 24.4662 60.1078 24.2627C59.5569 24.0593 58.7347 23.8389 57.6497 23.6016C56.1707 23.2795 55.1281 22.8133 54.5178 22.1988C53.9076 21.5885 53.6024 20.796 53.6024 19.8297C53.6024 19.2025 53.7889 18.5922 54.1618 18.0074C54.5348 17.4225 55.09 16.9479 55.8316 16.5792C56.569 16.2147 57.4506 16.0325 58.4677 16.0325C59.5357 16.0325 60.4511 16.2105 61.2054 16.5665C61.9598 16.9225 62.532 17.3378 62.9134 17.8167C63.2948 18.2956 63.4855 18.6897 63.4855 19.0118C63.4855 19.1644 63.4304 19.2915 63.3202 19.3932C63.21 19.4949 63.0787 19.5458 62.9261 19.5458H61.9598C61.7225 19.5458 61.553 19.4526 61.4513 19.2661C61.1631 18.944 60.9215 18.694 60.7265 18.516C60.5316 18.338 60.2477 18.1854 59.8747 18.0582C59.5018 17.9311 59.0356 17.8675 58.4719 17.8675C57.6413 17.8675 57.0013 18.0413 56.5606 18.3888C56.1198 18.7363 55.8994 19.1983 55.8994 19.7789C55.8994 20.1349 55.9927 20.4358 56.1791 20.6816C56.3656 20.9274 56.7216 21.1562 57.2471 21.3682C57.7726 21.5801 58.5524 21.7962 59.5908 22.0166C61.2055 22.3556 62.3455 22.8387 63.0151 23.4702C63.6847 24.0974 64.0195 24.9069 64.0195 25.8901C64.0195 26.6191 63.8118 27.2844 63.3965 27.8778C62.9812 28.4711 62.3624 28.9373 61.536 29.2806C60.7138 29.6196 59.7306 29.7891 58.5948 29.7891C57.4209 29.7891 56.4292 29.5984 55.624 29.217Z"
          fill="#E8E8E8"/>
    <path d="M67.1892 29.3696C67.079 29.2594 67.0239 29.1195 67.0239 28.95V12.036C67.0239 11.8495 67.079 11.7055 67.1892 11.6037C67.2994 11.502 67.4393 11.4512 67.6088 11.4512H68.7785C68.9649 11.4512 69.109 11.502 69.2108 11.6037C69.3125 11.7055 69.3633 11.8495 69.3633 12.036V17.9693C69.8549 17.342 70.4355 16.8631 71.1094 16.5283C71.779 16.1978 72.6097 16.0325 73.5929 16.0325C75.2245 16.0325 76.4917 16.5538 77.4029 17.6006C78.3098 18.6431 78.7675 20.0247 78.7675 21.7411V28.9458C78.7675 29.1153 78.7124 29.2551 78.6022 29.3653C78.492 29.4755 78.3522 29.5306 78.1827 29.5306H76.9875C76.818 29.5306 76.6782 29.4755 76.568 29.3653C76.4578 29.2551 76.4027 29.1153 76.4027 28.9458V21.8937C76.4027 20.6731 76.106 19.7196 75.5127 19.0415C74.9194 18.3634 74.0591 18.0244 72.9402 18.0244C71.8553 18.0244 70.9865 18.3676 70.3423 19.0542C69.6981 19.7408 69.376 20.6901 69.376 21.8937V28.9458C69.376 29.1153 69.3209 29.2551 69.2108 29.3653C69.1006 29.4755 68.9607 29.5306 68.7912 29.5306H67.6215C67.4393 29.5349 67.2994 29.4798 67.1892 29.3696Z"
          fill="#E8E8E8"/>
    <path d="M83.5145 28.2083C82.5058 27.1573 81.9634 25.7545 81.8956 24.0042L81.8701 22.9108L81.8956 21.8174C81.9634 20.0671 82.5101 18.6685 83.5399 17.6133C84.5655 16.5622 85.998 16.0325 87.833 16.0325C89.6681 16.0325 91.0963 16.558 92.1262 17.6133C93.1518 18.6685 93.7027 20.0671 93.7705 21.8174C93.8044 22.1903 93.8214 22.5548 93.8214 22.9108C93.8214 23.2668 93.8044 23.6313 93.7705 24.0042C93.7027 25.7545 93.1645 27.1531 92.1516 28.2083C91.1429 29.2594 89.702 29.7891 87.833 29.7891C85.9641 29.7891 84.5231 29.2636 83.5145 28.2083ZM90.4182 26.8479C91.0539 26.1614 91.3972 25.1697 91.4481 23.8813C91.465 23.7118 91.4735 23.3897 91.4735 22.915C91.4735 22.4404 91.465 22.1183 91.4481 21.9488C91.3972 20.6604 91.0539 19.6687 90.4182 18.9821C89.7825 18.2956 88.918 17.9523 87.833 17.9523C86.7481 17.9523 85.8835 18.2956 85.2478 18.9821C84.6121 19.6687 84.2688 20.6604 84.218 21.9488L84.1926 22.915L84.218 23.8813C84.2688 25.1739 84.6121 26.1614 85.2478 26.8479C85.8835 27.5345 86.7481 27.8778 87.833 27.8778C88.918 27.8778 89.7825 27.5345 90.4182 26.8479Z"
          fill="#E8E8E8"/>
    <path d="M97.1907 29.3696C97.0805 29.2594 97.0254 29.1195 97.0254 28.95V16.9013C97.0254 16.7318 97.0805 16.5877 97.1907 16.469C97.3009 16.3503 97.4407 16.291 97.6102 16.291H98.6782C98.8647 16.291 99.013 16.3461 99.1232 16.4563C99.2334 16.5665 99.2885 16.7148 99.2885 16.9013V18.0201C99.9835 16.8674 101.166 16.2868 102.827 16.2868H103.819C104.005 16.2868 104.15 16.3376 104.251 16.4393C104.353 16.5411 104.404 16.6851 104.404 16.8716V17.8125C104.404 17.982 104.353 18.1218 104.251 18.232C104.15 18.3422 104.005 18.3973 103.819 18.3973H102.365C101.433 18.3973 100.696 18.6685 100.162 19.211C99.6275 19.7535 99.3605 20.4951 99.3605 21.4275V28.9458C99.3605 29.1153 99.3012 29.2552 99.1825 29.3653C99.0639 29.4755 98.9198 29.5306 98.7503 29.5306H97.606C97.4407 29.5349 97.3009 29.4798 97.1907 29.3696Z"
          fill="#E8E8E8"/>
    <path d="M109.023 25.0764V18.249H107.01C106.841 18.249 106.705 18.1981 106.603 18.0964C106.502 17.9947 106.451 17.8591 106.451 17.6896V16.8759C106.451 16.7063 106.502 16.5665 106.603 16.4563C106.705 16.3461 106.841 16.291 107.01 16.291H109.023V12.036C109.023 11.8665 109.074 11.7266 109.176 11.6165C109.277 11.5063 109.413 11.4512 109.583 11.4512H110.701C110.871 11.4512 111.011 11.5063 111.121 11.6165C111.231 11.7266 111.286 11.8665 111.286 12.036V16.291H114.444C114.613 16.291 114.753 16.3461 114.863 16.4563C114.973 16.5665 115.028 16.7063 115.028 16.8759V17.6896C115.028 17.8591 114.973 17.9947 114.863 18.0964C114.753 18.1981 114.613 18.249 114.444 18.249H111.286V24.8984C111.286 25.763 111.426 26.4199 111.706 26.8607C111.986 27.3014 112.464 27.5218 113.147 27.5218H114.702C114.872 27.5218 115.007 27.5769 115.109 27.6871C115.211 27.7973 115.262 27.9371 115.262 28.1066V28.9458C115.262 29.1153 115.211 29.2551 115.109 29.3653C115.007 29.4755 114.872 29.5306 114.702 29.5306H112.969C110.337 29.5349 109.023 28.0473 109.023 25.0764Z"
          fill="#E8E8E8"/>
    <path d="M118.851 28.1702C117.817 27.0937 117.245 25.6189 117.143 23.7499L117.122 22.8854L117.148 22.0462C117.249 20.2112 117.817 18.7533 118.855 17.6641C119.89 16.5792 121.275 16.0325 123.009 16.0325C124.878 16.0325 126.323 16.6258 127.353 17.8167C128.378 19.0033 128.895 20.618 128.895 22.6565V23.1142C128.895 23.2837 128.84 23.4236 128.73 23.5338C128.62 23.644 128.48 23.6991 128.31 23.6991H119.47V23.9279C119.521 25.034 119.86 25.9749 120.487 26.7547C121.114 27.5345 121.949 27.9244 122.983 27.9244C123.78 27.9244 124.433 27.7676 124.933 27.454C125.433 27.1404 125.81 26.814 126.064 26.475C126.217 26.2716 126.336 26.1487 126.42 26.1063C126.505 26.0639 126.649 26.0427 126.853 26.0427H127.971C128.124 26.0427 128.255 26.0851 128.366 26.1698C128.476 26.2546 128.531 26.3648 128.531 26.5004C128.531 26.8734 128.302 27.3226 127.844 27.8523C127.387 28.3779 126.738 28.8313 125.895 29.217C125.051 29.6026 124.089 29.7891 123.004 29.7891C121.271 29.7891 119.89 29.2509 118.851 28.1702ZM126.573 21.97V21.8937C126.573 20.707 126.251 19.7365 125.607 18.9906C124.962 18.2447 124.094 17.8718 123.009 17.8718C121.907 17.8718 121.038 18.2447 120.411 18.9906C119.784 19.7365 119.47 20.707 119.47 21.8937V21.97H126.573Z"
          fill="#E8E8E8"/>
    <path d="M132.163 29.3696C132.053 29.2594 131.998 29.1195 131.998 28.95V16.8758C131.998 16.7063 132.053 16.5665 132.163 16.4563C132.273 16.3461 132.413 16.291 132.582 16.291H133.676C133.862 16.291 134.006 16.3418 134.108 16.4436C134.21 16.5453 134.261 16.6894 134.261 16.8758V17.9947C134.769 17.3674 135.358 16.8843 136.032 16.541C136.702 16.202 137.541 16.0325 138.541 16.0325C140.173 16.0325 141.436 16.5537 142.338 17.6005C143.237 18.6431 143.69 20.0247 143.69 21.7411V28.9458C143.69 29.1153 143.635 29.2551 143.525 29.3653C143.415 29.4755 143.275 29.5306 143.105 29.5306H141.932C141.762 29.5306 141.622 29.4755 141.512 29.3653C141.402 29.2551 141.347 29.1153 141.347 28.9458V21.8937C141.347 20.6731 141.05 19.7196 140.457 19.0415C139.863 18.3634 139.012 18.0243 137.91 18.0243C136.825 18.0243 135.956 18.3676 135.312 19.0542C134.668 19.7407 134.345 20.6901 134.345 21.8937V28.9458C134.345 29.1153 134.29 29.2551 134.18 29.3653C134.07 29.4755 133.93 29.5306 133.761 29.5306H132.591C132.413 29.5348 132.273 29.4797 132.163 29.3696Z"
          fill="#E8E8E8"/>
    <path d="M148.475 28.1702C147.441 27.0937 146.869 25.6189 146.767 23.7499L146.742 22.8854L146.767 22.0462C146.869 20.2112 147.437 18.7533 148.475 17.6641C149.509 16.5792 150.895 16.0325 152.628 16.0325C154.497 16.0325 155.942 16.6258 156.972 17.8167C157.998 19.0033 158.515 20.618 158.515 22.6565V23.1142C158.515 23.2837 158.46 23.4236 158.35 23.5338C158.239 23.644 158.1 23.6991 157.93 23.6991H149.09V23.9279C149.14 25.034 149.479 25.9749 150.107 26.7547C150.734 27.5345 151.569 27.9244 152.603 27.9244C153.4 27.9244 154.052 27.7676 154.552 27.454C155.052 27.1404 155.43 26.814 155.684 26.475C155.837 26.2716 155.955 26.1487 156.04 26.1063C156.125 26.0639 156.269 26.0427 156.472 26.0427H157.591C157.744 26.0427 157.875 26.0851 157.985 26.1698C158.095 26.2546 158.15 26.3648 158.15 26.5004C158.15 26.8734 157.922 27.3226 157.464 27.8523C157.006 28.3779 156.358 28.8313 155.514 29.217C154.671 29.6026 153.709 29.7891 152.624 29.7891C150.895 29.7891 149.513 29.2509 148.475 28.1702ZM156.193 21.97V21.8937C156.193 20.707 155.87 19.7365 155.226 18.9906C154.582 18.2447 153.713 17.8718 152.628 17.8718C151.526 17.8718 150.658 18.2447 150.03 18.9906C149.403 19.7365 149.09 20.707 149.09 21.8937V21.97H156.193Z"
          fill="#E8E8E8"/>
    <path d="M161.786 29.3696C161.676 29.2594 161.621 29.1195 161.621 28.95V16.9013C161.621 16.7318 161.676 16.5877 161.786 16.469C161.897 16.3503 162.036 16.291 162.206 16.291H163.274C163.46 16.291 163.609 16.3461 163.719 16.4563C163.829 16.5665 163.884 16.7148 163.884 16.9013V18.0201C164.579 16.8674 165.762 16.2868 167.423 16.2868H168.415C168.601 16.2868 168.745 16.3376 168.847 16.4393C168.949 16.5411 169 16.6851 169 16.8716V17.8125C169 17.982 168.949 18.1218 168.847 18.232C168.745 18.3422 168.601 18.3973 168.415 18.3973H166.961C166.029 18.3973 165.291 18.6685 164.757 19.211C164.223 19.7535 163.956 20.4951 163.956 21.4275V28.9458C163.956 29.1153 163.897 29.2552 163.778 29.3653C163.66 29.4755 163.515 29.5306 163.346 29.5306H162.202C162.036 29.5349 161.897 29.4798 161.786 29.3696Z"
          fill="#E8E8E8"/>
</svg>
